<?xml version="1.0" encoding="UTF-8" standalone="no"?>
<!DOCTYPE svg PUBLIC "-//W3C//DTD SVG 1.1//EN" "http://www.w3.org/Graphics/SVG/1.1/DTD/svg11.dtd">
<svg width="100%" height="100%" viewBox="0 0 1024 1024" version="1.1" xmlns="http://www.w3.org/2000/svg" xmlns:xlink="http://www.w3.org/1999/xlink" xml:space="preserve" xmlns:serif="http://www.serif.com/" style="fill-rule:evenodd;clip-rule:evenodd;stroke-linejoin:round;stroke-miterlimit:2;">
    <g transform="matrix(0.740807,0,0,0.781878,234.649,164.48)">
        <g id="Template---Icons---App">
            <path d="M569.4,808L227.8,808C227.8,808 170.6,811 124.2,764.6C77.9,718.1 81,660.8 81,660.8L81,237.6C81,237.6 83.5,194.4 115.6,153C157,99.6 223.9,96.2 223.9,96.2L481.3,89.5L571.7,89.5L592.5,89.4C645.8,89.2 689.1,132.3 689.1,185.6L689.1,687.3C689.1,721.7 676.4,749.4 654.1,773.1C620.2,809.1 569.4,808 569.4,808Z" style="fill:url(#_Radial1);fill-rule:nonzero;"/>
        </g>
    </g>
    <defs>
        <radialGradient id="_Radial1" cx="0" cy="0" r="1" gradientUnits="userSpaceOnUse" gradientTransform="matrix(-752.019,-755.176,717.585,-714.586,921.814,1051.45)"><stop offset="0" style="stop-color:rgb(19,72,255);stop-opacity:1"/><stop offset="1" style="stop-color:rgb(6,35,141);stop-opacity:1"/></radialGradient>
    </defs>
</svg>
