<?xml version="1.0" encoding="UTF-8" standalone="no"?>
<!DOCTYPE svg PUBLIC "-//W3C//DTD SVG 1.1//EN" "http://www.w3.org/Graphics/SVG/1.1/DTD/svg11.dtd">
<svg width="100%" height="100%" viewBox="0 0 1024 1024" version="1.1" xmlns="http://www.w3.org/2000/svg" xmlns:xlink="http://www.w3.org/1999/xlink" xml:space="preserve" xmlns:serif="http://www.serif.com/" style="fill-rule:evenodd;clip-rule:evenodd;stroke-linejoin:round;stroke-miterlimit:2;">
    <g transform="matrix(0.740807,0,0,0.781878,234.649,164.48)">
        <g id="Template---Icons---App">
            <path d="M378.224,90.5L558.7,90.5C558.7,90.5 534.2,93.8 508.7,115C473.2,144.6 475.5,207.4 473.2,228.5L473.2,663.9C473.2,775.1 566.9,803.2 566.9,803.2C566.9,803.2 557.1,806.2 549.4,807.4C542.2,808.6 530.9,809 530.9,809L388.368,806.417C360.743,799.562 269.5,768.759 269.5,660.9L269.5,286.3C269.5,286.3 269.5,265.6 269.6,238.2L269.6,235.6C270.2,219.6 270.8,201.6 274.9,190.1C284.9,161.8 288.9,150.6 310.5,128C331.066,106.632 369.943,93.191 378.224,90.5Z" style="fill:url(#_Radial1);"/>
        </g>
    </g>
    <defs>
        <radialGradient id="_Radial1" cx="0" cy="0" r="1" gradientUnits="userSpaceOnUse" gradientTransform="matrix(643.281,696.873,-1304.31,1204,27.3366,165.147)"><stop offset="0" style="stop-color:rgb(1,149,255);stop-opacity:1"/><stop offset="1" style="stop-color:rgb(17,71,233);stop-opacity:1"/></radialGradient>
    </defs>
</svg>
