<?xml version="1.0" encoding="UTF-8" standalone="no"?>
<!DOCTYPE svg PUBLIC "-//W3C//DTD SVG 1.1//EN" "http://www.w3.org/Graphics/SVG/1.1/DTD/svg11.dtd">
<svg width="100%" height="100%" viewBox="0 0 1024 1024" version="1.1" xmlns="http://www.w3.org/2000/svg" xmlns:xlink="http://www.w3.org/1999/xlink" xml:space="preserve" xmlns:serif="http://www.serif.com/" style="fill-rule:evenodd;clip-rule:evenodd;stroke-linejoin:round;stroke-miterlimit:2;">
    <g transform="matrix(0.740807,0,0,0.781878,234.649,164.48)">
        <g id="Template---Icons---App">
            <path d="M283.5,808L227.8,808C227.8,808 170.6,811 124.2,764.6C77.9,718.1 81,660.8 81,660.8L81,236.7C81,236.7 82.2,216.1 85.8,202.5C88.8,191.1 96.4,172.7 96.4,172.7C96.4,172.7 104,158.5 110.4,150.1C116.5,141.9 119,139 125.3,132.8C138.5,119.8 154.2,108.7 186.4,97.7C208.6,90 246,90 246,90L379.8,90C379.8,90 333.6,104 310.5,128C288.9,150.6 284.9,161.8 274.9,190.1C270.8,201.6 270.2,219.6 269.6,235.6L269.6,238.2C269.5,265.6 269.5,286.3 269.5,286.3L269.5,660.9C269.5,788 396.2,808.1 396.2,808.1L283.5,808.1L283.5,808Z" style="fill:url(#_Radial1);fill-rule:nonzero;"/>
        </g>
    </g>
    <defs>
        <radialGradient id="_Radial1" cx="0" cy="0" r="1" gradientUnits="userSpaceOnUse" gradientTransform="matrix(339.507,577.752,-702.394,412.752,108.879,277.423)"><stop offset="0" style="stop-color:rgb(0,187,255);stop-opacity:1"/><stop offset="1" style="stop-color:rgb(0,139,255);stop-opacity:1"/></radialGradient>
    </defs>
</svg>
